/* XPM */
static char *result[] = {
/* columns rows colors chars-per-pixel */
"64 64 218 2 ",
"   c #0E0E0E",
".  c #140F0F",
"X  c #0F100E",
"o  c #101007",
"O  c #101208",
"+  c #151C0D",
"@  c #151414",
"#  c #1A1616",
"$  c #151D12",
"%  c #1C1C1C",
"&  c #241717",
"*  c #2B1717",
"=  c #271F16",
"-  c #241C1C",
";  c #2C1C1C",
":  c #331717",
">  c #321917",
",  c #321C1C",
"<  c #3B1B1B",
"1  c #17210F",
"2  c #18220F",
"3  c #182310",
"4  c #162D12",
"5  c #182C11",
"6  c #1B2319",
"7  c #1C281A",
"8  c #173611",
"9  c #193212",
"0  c #173911",
"q  c #1B3B14",
"w  c #1F381A",
"e  c #252415",
"r  c #22251C",
"t  c #2B251E",
"y  c #24291F",
"u  c #2C2B1D",
"i  c #32251B",
"p  c #3C221F",
"a  c #352D1D",
"s  c #3A2A1E",
"d  c #2E3217",
"f  c #2A331D",
"g  c #36341E",
"h  c #232121",
"j  c #2C2121",
"k  c #232D22",
"l  c #2B2B21",
"z  c #2C2A2A",
"x  c #332121",
"c  c #3D2121",
"v  c #332D22",
"b  c #3D2C22",
"n  c #342A2A",
"m  c #3B2A2A",
"M  c #263125",
"N  c #2B3124",
"B  c #223922",
"V  c #2C3A24",
"C  c #293228",
"Z  c #283F28",
"A  c #333225",
"S  c #3E3123",
"D  c #393925",
"F  c #401F1F",
"G  c #422121",
"H  c #452A2A",
"J  c #492A2A",
"K  c #0B4D0C",
"L  c #124B0D",
"P  c #075309",
"I  c #0A550B",
"U  c #0A5C0A",
"Y  c #13550C",
"T  c #155B0C",
"R  c #0F4D12",
"E  c #1A4214",
"W  c #194915",
"Q  c #1D4C16",
"!  c #1F4D19",
"~  c #0F5411",
"^  c #1A5515",
"/  c #145B14",
"(  c #1A5C12",
")  c #1F5618",
"_  c #21461B",
"`  c #214E1B",
"'  c #20551A",
"]  c #215B1A",
"[  c #0C630A",
"{  c #0D6B0A",
"}  c #14630D",
"|  c #126B08",
" . c #1B6B0F",
".. c #0F730B",
"X. c #0E7A09",
"o. c #12740B",
"O. c #117B0A",
"+. c #146214",
"@. c #196414",
"#. c #196D10",
"$. c #1E691C",
"%. c #167511",
"&. c #1C7415",
"*. c #1B7D15",
"=. c #21631B",
"-. c #226D1D",
";. c #286E1F",
":. c #217D1A",
">. c #2A4727",
",. c #2B5928",
"<. c #36522E",
"1. c #2A6426",
"2. c #236A21",
"3. c #33692F",
"4. c #247523",
"5. c #297524",
"6. c #267A23",
"7. c #2A7A26",
"8. c #2D7A2A",
"9. c #3B7437",
"0. c #10840A",
"q. c #138B0D",
"w. c #15930F",
"e. c #169C0E",
"r. c #168A10",
"t. c #1D8719",
"y. c #169410",
"u. c #199413",
"i. c #169B10",
"p. c #1B9C14",
"a. c #1E981A",
"s. c #20881D",
"d. c #219D1C",
"f. c #17A30F",
"g. c #19A412",
"h. c #1CA416",
"j. c #22A31E",
"k. c #22A91D",
"l. c #258A24",
"z. c #298B26",
"x. c #2B862B",
"c. c #2D8C2A",
"v. c #30812E",
"b. c #328E2E",
"n. c #259D22",
"m. c #2D912E",
"M. c #2E982D",
"N. c #33932F",
"B. c #368B33",
"V. c #388B35",
"C. c #339331",
"Z. c #349B33",
"A. c #3E963D",
"S. c #3C9D3A",
"D. c #24A320",
"F. c #2AA627",
"G. c #26AA22",
"H. c #2AAB27",
"J. c #2EAB2C",
"K. c #31AE2F",
"L. c #35A433",
"P. c #39A437",
"I. c #35AE33",
"U. c #38A937",
"Y. c #3CA23A",
"T. c #3AAB3A",
"R. c #35B234",
"E. c #38B237",
"W. c #3CB43B",
"Q. c #41863E",
"!. c #409D3E",
"~. c #40AB3F",
"^. c #40B63F",
"/. c #448F44",
"(. c #429B42",
"). c #4A9F4D",
"_. c #41AE41",
"`. c #49A94C",
"'. c #42B442",
"]. c #45BB45",
"[. c #4AB14C",
"{. c #4ABE4A",
"}. c #4FA551",
"|. c #52A254",
" X c #55A656",
".X c #4FB252",
"XX c #4EBD50",
"oX c #57BD5C",
"OX c #58BB5C",
"+X c #5FB763",
"@X c #62B464",
"#X c #67BD6A",
"$X c #4CC14D",
"%X c #4FC350",
"&X c #52C454",
"*X c #56C45A",
"=X c #59C55E",
"-X c #58C85C",
";X c #5CC662",
":X c #5DCA63",
">X c #60CC66",
",X c #62CD69",
"<X c #6ACF6E",
"1X c #6AD16F",
"2X c #6DCB71",
"3X c #74C976",
"4X c #6ED272",
"5X c #72D475",
"6X c #76D679",
"7X c #7CD97F",
"8X c #7DD383",
"9X c #7FDA83",
"0X c #85DE89",
"qX c #86DD8B",
"wX c #89E18E",
"eX c #8DE394",
"rX c #90E497",
"tX c #92E699",
/* pixels */
"x j x c x G G G G G G G G G x : . m m x h j h h h h h % h j h j x x x c c c G G G G G G G c x * . m n j h j h h h h h h h j h j ",
"x x c c G G G G G G G G c x , * @ n n h j h h % h h h h j j j x x x c x c G G G G G G G c c c * . m n j h h h h h h h h j j j j ",
"x c x c G G G G G G G c x c x * . n z z h h h h h h h h j j x x x c x G G G G G G G G c x c x & @ n n j h h h h h h h h j j x x ",
"G , c G G G G G G G G c c x x & . n n h h h h h h h j h j j x i c x c G G G G G G G c c c x x & . z m h h h h % h h h h j x j x ",
"H , G G G G G G G c c c m ; , & X n z h z % h r h z M N v A A S H s b b H b G G G c x c m ; t & . n z h z % h h h j j j j x x c ",
"< < F G G G G G c x c x ; * j # X z z h % 6 k k k Z x.N.b.b.B.C.N.b.b.b.b.b.D s b g b i ; ; ; # X z z h % @ h h j j j j x x c x ",
"G F F G F G F G x c x , j j - &   z z k B 4.x.z.c.Z.T.W.].{.{.{.$X$X{.{.^.E.S.c.z.x.5.V u ; - & X z z % % h h j h j x x x x x c ",
": : : : : : : * * * & & & # & @   M B 6.C.P.^.'.].{.$X$X{.{.XX$X$X$X{.%X%X$X$X].'.T.P.B.7.w r # X z % % % @ # # & & & & : * : : ",
". . . . . . . . . . . . X X X $ 4 4.m.T.].{.$X$X{.'._.S.A.C.V.V.b.B.V.!.~.~.'.{.{.$X$X].U.N.4.4 $ % X @ . X . . . . . . . . . . ",
": J H J J m H m m m m z n C >.4.Z.~.].$X$X{.'.P.B.5.] ! w q f 9 e 0 q _ ` =.7.b.Y.'.{.$X$X].U.N.4.>.C z n z n m m m H m J J J J ",
". J J J m H m m n m z n B 2.x.Y.XX&X$X{._.N.5.' q 5 3 3 3 5 5 5 5 5 5 5 9 0 E Q =.6.N.^.{.$X$X].L.l.2.C z n n m m H m J J J J J ",
"X J J c G x x x x h j k 2.m._.%X&X%X{.S.2.Q 0 2 3 3 3 3 5 8 8 0 8 8 8 8 0 0 0 0 0 E ) 5.S.{.%X$X].U.l.$.l x x x x c G G G G F < ",
". H m G m ; j j h h h B m.[.*X%X%X].C.=.f 2 3 3 3 3 $ 3 9 0 0 0 0 0 0 0 0 0 0 0 0 0 0 E =.N.^.$X%X{.I.l.V i x c x G G G J < F < ",
"  m H x ; ; j j j h M 8._.*X*X%X'.N.] 9 1 2 $ 3 3 3 3 3 5 8 8 0 0 0 0 0 0 0 0 0 0 0 8 9 9 ) c.^.$X$X{.U.7.a c x G G G G F < F < ",
". H m x x j h j h h B m.].%X%X].N.' 5 2 1 1 3 3 3 3 3 3 3 5 8 0 0 0 0 0 0 0 0 0 0 0 0 8 5 5 ( M.W.$X%X].N.D x G G G G G F F F : ",
"  m n x x h j h h k 6.U.$X$X{.U.=.9 2 2 2 + + + + 2 3 3 3 3 5 8 8 8 0 0 0 0 0 0 0 0 0 0 8 8 0 $.L.^.{.{.P.8.m G G G G G G F F : ",
"  m m j j j h h h B M.'.$X].'.x.E 1 1 3 + + O O + 1 1 1 $ 1 2 2 5 8 0 0 0 0 0 0 0 0 0 0 0 0 0 W l.W.$X$X^.N.D G G G G G G G , < ",
"  n n j j h h h 7 $.L.{.$X%X_.2.5 + 1 1 + O O O O + + o O + + 1 1 2 4 8 0 0 0 0 0 0 0 0 0 0 8 0 2.T.$X$X{.L.;.b G G G G G i c * ",
"  m z j h h h h k 4.U.$X-X-X`.` 1 + O O O O O O o O O O O O O + 1 3 2 4 0 0 0 0 0 0 0 0 0 0 0 0 ) S.%X-X*X~.7.b G G G G x c x * ",
"  z m h h h % h k 6.T.&X:X:X).E + O O O o O O O O O o o O O O + + 1 2 2 9 0 0 0 0 0 0 0 0 0 0 0 ) !.;X:X:X[.x.s G G G p c x ; ; ",
"  z z h z % % h k 5.Y.*X>X,X|.` + O O O O o O O o O o o O o O O + + 1 3 8 0 0 0 0 0 0 0 0 0 0 0 ` ).:X,X,X.X8.H G c c c m ; ; * ",
"  z z h % % h h k -.P.;X<X5X@X,.+ o O O O O o o O o O o O O O o O + + 3 3 8 0 0 0 0 0 0 0 0 0 E 2.`.:X1X:X[.8.m c x c x ; ; ; % ",
"  z z % % % h h k $.Z.*X4X9X2X/.q + O O o O o o O o O O o O O O o o + + 2 9 0 0 0 0 0 0 0 0 0 ! B.oX>X>X;XT.$.b x c x j ; j h & ",
"  z h @ % % # % e +.l.{.6XwX0X#X3.4 O o o O o o O o O o O O o O O o o + 2 3 0 0 0 0 0 0 0 0 E 7.`.:X>X>X*XZ.@.e * * * & & # & # ",
"  %       . . . @ I %.P.2XrXtX0X}.,.4 O o o o O O O o O o o O O O O O O 1 2 8 0 0 0 0 0 0 E 2.S.;X,X>X;X'.t.U + . . . X . X X X ",
"z z z z m z n m n ~ [ l.*XqXtXtX8X}.,.3 o . O o o O O o o o O o O o O O + 1 5 8 8 0 0 0 E ,.(.=X:X,X:X&XM.+.Y v m m n n n z z z ",
"z z z z z n m m v L I %.P.4XeXtXrX8X X3.9 + o O O O O o o o O O O O O O + 3 1 2 9 8 0 E =.A.OX>X,X>X*XT.t.U L v n m z n z z z z ",
"h h j h j x x x c u / | s.'.5XeXtXrX0X@X9._ 3 O O O X o . O o O O o . O + 1 2 2 5 q ' 8._.OX,X>X:X-X_.n.o.R y x x h j h h h h h ",
"z h j j x x x c c b L | r.n.{.2XwXtXtXeX3X|.9._ 4 + + O O O O o O O o O + + 5 q ` 8.A.[.;X>X>X:X*XW.D.r.{ L t x h h h h h h h h ",
"- - j j j x c x c c a } 0.u.F.].2XqXtXtXrXqX2X|.Q.3.>.w 8 3 + @ O O + 1 9 Q 1.v._.XX=X>X,X,X:X&XW.n.r.X.T e t h j h h h h h h % ",
"h j j x x c x G G G p T O.y.g.G.W.:X7XeXtXrXrXqX8X3X@X|.Q.9.3.<.<.,.,.3.B.S.[.OX:X:X>X>X>X:X{.I.d.u.0.| f j h j h h h h h h h h ",
"x x x x c x F G G G G g  .r.i.g.k.R.&X4X0XqXeXrXtXrXwX8X5X3X#X#X+X+XOXOX=X;X>X>X,X:X:X*XXX'.J.d.u.w.0./ z h j h h h h h h h h h ",
"x x x c c G G G G G G G g &.y.f.g.k.W.$X&X-X1X7XwXeXwX0X9X7X7X6X1X:X,X,X,X>X>X:X-X$X].R.F.d.u.u.w.0. .f h j h h h h h h h j h j ",
"j x c x c G G G G G G G p g &.u.g.k.R.E.K.H.K.^.%X>X1X5X6X1X,X>X,X:X>X:X:X-X%X].U.F.j.a.u.u.y.w.r.&.V j h h h h h h h h h j j x ",
"x c c c G G G G G G G c x c f %.y.j.J.K.G.g.f.k.k.H.R.^.$X].].].$X$X$X].^.R.H.k.p.u.u.y.w.y.w.q.#.>.z j h h h h h % h j j j x j ",
"c < c G G G G G G G c c c x t T o.0.d.k.g.g.f.f.g.g.g.g.k.k.k.k.G.G.k.h.h.h.g.i.y.y.w.w.y.w.0.o.I C n j h h % h h h j h j j x x ",
"m < c G G G G G G c x c m ; t R U { O.q.w.f.f.f.g.f.f.f.f.f.f.f.g.f.g.g.g.i.i.y.w.w.w.w.w.0.| U K n z h z % h h h j j j x j x c ",
"< < G G G G G G c c c i ; ; t R I I [ [ X.0.w.w.f.f.f.f.f.f.f.f.f.f.f.f.i.y.y.w.w.q.0.0...[ U P P C z h % @ h h j h j j x x c x ",
"F F G G G F F c x c x x j j 7 R P P I I U [ { ..0.q.f.f.f.f.f.f.f.f.f.i.y.q.q.0.0...{ U I P P P K M z h h % h h j ; x x x x x G ",
": : : : : : : * * * & & & # % R [ { [ I P P P U [ { | X.0.0.0.q.q.q.0.0.X.{ { [ [ P P P P P P P K k h @ @ % % # & & & & : * : : ",
". . . . . @ . . . . . . .   @ ~ { O.O.{ I P P P P P P P [ [ [ U U [ [ U U P P P P P P P P I U U K 6 @     . . X . . . . @ . . . ",
": G J J J H H m m m n z n z C / o.w.y.0...I P P P P P P P P P P P P P P P P P P P P P P U [ | U K z z z n z n m m m H m J J J J ",
". J J H m J m m m n z z z z C ~ o.y.h.D.a.0.{ U P P P P P P P P P P P P P P P P P P U U U | | U K M z n z m m m m H m J J J J J ",
". J J c c x x j j j z h h h k / O.i.k.R.L.a.q.X.{ [ P P P P P P P P P P P P P P U [ [ { | | | U K k j j j x x x c x G G G G F < ",
". J m c m ; x j h j h h % h 7 +.0.i.k.E.R.G.f.y.0.0.{ U U U U [ U U [ [ U [ [ { { { | | | | | I K 6 h j j x x c x G G G J F F < ",
"  m H x ; ; j h h h h h h h k +.r.f.k.E.E.G.g.f.e.q.0.X.X.X.X.X.X.X.0.0.0.X.0.X.{ | | | | | | U K 6 j x x x c x G G G G < < F : ",
". H m x x ; j j h h h h h h k / q.i.G.R.E.G.g.g.e.w.0.0.0.0.0.0.0.0.0.w.w.0.0.X.o.| | | | | | U K l x x x c x G G G G F G F F < ",
"  m m x j h j h h % h h h h k +.r.g.k.E.E.G.g.g.e.w.q.0.0.0.0.0.0.0.0.q.q.0.0.X.o.| | | | | | U K j j x c x G G G G G G G F F : ",
"  m m j h j h h h h h h h j k @.q.g.k.E.E.G.g.f.i.w.q.0.0.0.0.0.0.0.0.0.0.0.0.0.O.| | | | | | U K t x c c c G G G G G G G G , < ",
"  n n j j h h h h h h h j h z ( q.g.k.E.E.G.g.f.i.w.w.0.0.0.0.0.0.0.0.0.0.0.0.O.o.| | | | | | U L x c x G G G G G G G G c x c * ",
"X n z j h h % h h h h h j j j f *.e.k.E.E.G.g.g.e.w.q.0.0.0.0.0.0.0.0.0.0.0.O.| | | | | | | | I u c x G G G G G G G G c x c x * ",
"  n m h h % h h h h h h j j x v =.u.j.K.E.G.g.g.e.w.q.0.0.0.0.0.0.0.0.0.O.o.| | | | | | | | [ ^ a c c G G G G G G G c c c x ; ; ",
"  n z h z % h h h j h j x x x c g t.p.F.K.k.g.f.i.w.q.0.0.0.0.0.0.0.0.0.O.| | | | | | | | | Y a m < G G G G G G G c x c m ; ; ; ",
"  z z h % % h h j j j x x x c x s ;.u.d.k.k.f.f.i.w.q.0.0.0.0.0.0.0.0.0.O.| | | | | | | | } L i < < F G G G G G c c c x ; ; j # ",
"  z z h % % h h - j j x x , x < F g :.s.u.p.f.f.i.w.q.0.0.0.0.0.0.0.0.0.O.| | | | | | | } ^ u F < G G G F G F c x c x ; j j - & ",
"  h h @ @ % # % & & & * : ; > : : : i d :.u.i.y.y.w.q.0.0.0.0.X.o.o.X.0.O.| | | | | | T e = : : : : : : : : : * * * * & & # & # ",
"  % . X X X . X . . @ . . @ . . . . . . 5 &.t.r.u.y.q.0.O.X.O.o.| | o.O.O.| | | | +.Y 1 + . . . . . . . . . . . . . . . . X X X ",
"z z z n n n n m m m H m J J J H : J J J J D <.:.l.t.*.o.#.#.} [ } | } } } } @.@.( V H b J H J H : J J H J m H m m m n z n z z z ",
"z z z z z n n m m H m J J J J < # J J J m J m A A A N N M M M M u M M N M A b A m H H J J J J c # J J J H H m m n n n n z z z z ",
"h h j j j x x x c c c G G G G : @ H J x G x x j j h z h h h h h h r j j x x x x c x c G G G G : . J J c c x x x x h j h h h h h ",
"z - j j x x x c c G G G J F F : . J H c m ; x j l j h h h % h h z - h j j x x c c c G G J < F : . H m G m ; x j h h h h h h % h ",
"h % j x j x c x c G G F F < F : . m H x ; ; j h j h h h h h h h - & j x x x c x G G G F < < F : . H H x ; ; j h j h h h h h h h ",
"h ; j x x c x G G G G G F F F : . J m x , j h j h h h h h h h j h x j x x c x G G G G G F G G : . H m x x j h h h h h h h h h h ",
"x j x x c c c G G G G G F F F * . m n x x h j h h % h h h h j h j x x x c x c G G G G G G G c - . m m x j j j h h h h h % h z h "
};
