/* XPM */
static char *_aedf05ddd464765ae45d19329524920UHSnSkyZoLcreXuB[] = {
/* columns rows colors chars-per-pixel */
"64 64 14 1 ",
"  c #312121",
". c #422121",
"X c #391818",
"o c gray3",
"O c #423131",
"+ c #392929",
"@ c gray13",
"# c #291818",
"$ c gray16",
"% c #313131",
"& c #181818",
"* c #523131",
"= c #4A2929",
"- c white",
/* pixels */
"   . ......... XoO+ @ @@@@@@@ @    . ......... XoO+ @ @@@@@@@ @ ",
"  . ......... .#oO+@ @@@@@@@ @    . ......... .#oO+@ @@@@@@@ @  ",
" . ......... . #oO$ @@@@@@@ @    . ......... . #oO$ @@@@@@@ @   ",
". ......... .  #o%O@@@@@@@ @    . ......... .  #o%O@@@@@@@ @    ",
"OX........ .O# #oO$@%&@@@ @    .OX........ .O# #oO$@%&@@@ @    .",
"XX....... . ## &o%$@&&@@ @    . XX....... . ## &o%$@&&@@ @    . ",
"........ .    @#o%$@@@@ @    . ......... .    @#o%$@@@@ @    . .",
"XXXXXXX#X####&#&o%@&&&#&####X#XXXXXXXXX#X####&#&o%@&&&#&####X#XX",
"ooooooooooooooooo&ooooooooooooooooooooooooooooooo&oooooooooooooo",
"X****O*OOOO%O%%%%%%%O%OOOO*O****X****O*OOOO%O%%%%%%%O%OOOO*O****",
"o*==+=++++$+$$$$$$$+$++++=+====.o*==+=++++$+$$$$$$$+$++++=+====.",
"o*= .    @ @@@@@@@ @    . .....Xo*= .    @ @@@@@@@ @    . .....X",
"o*+.O#  @ @@@@@@%#@    . ...*X.Xo*+.O#  @ @@@@@@%#@    . ...*X.X",
"oO= ## @ @@@@@@@#&    . ....XX.XoO= ## @ @@@@@@@#&    . ....XX.X",
"o*+   @ @@@@@@@ @    . ........Xo*+   @ @@@@@@@ @    . ........X",
"oO+  @ @@@@@@@ @    . .........#oO+  @ @@@@@@@ @    . .........#",
"oO+ @ @@@@@@@ @    . ......... XoO+ @ @@@@@@@ @    . ......... X",
"oO+@ @@@@@@@ @    . ......... .#oO+@ @@@@@@@ @    . ......... .#",
"oO$ @@@@@@@ @    . ......... . #oO$ @@@@@@@ @    . ......... . #",
"o%O@@@@@@@ @    . ......... .  #o%O@@@@@@@ @    . ......... .  #",
"oO$@%&@@@ @    .OX........ .O# #oO$@%&@@@ @    .OX........ .O# #",
"o%$@&&@@ @    . XX....... . ## &o%$@&&@@ @    . XX....... . ## &",
"o%$@@@@ @    . ......... .    @#o%$@@@@ @    . ......... .    @#",
"o%@&&&#&####X#XXXXXXXXX#X####&#&o%@&&&#&####X#XXXXXXXXX#X####&#&",
"o&ooooooooooooooooooooooooooooooo&oooooooooooooooooooooooooooooo",
"%%%%O%OOOO*O****X****O*OOOO%O%%%%%%%O%OOOO*O****X****O*OOOO%O%%%",
"$$$+$++++=+====.o*==+=++++$+$$$$$$$+$++++=+====.o*==+=++++$+$$$$",
"@@ @    . .....Xo*= .    @ @@@@@@@ @    . .....Xo*= .    @ @@@@@",
"%#@    . ...*X.Xo*+.O#  @ @@@@@@%#@    . ...*X.Xo*+.O#  @ @@@@@@",
"#&    . ....XX.XoO= ## @ @@@@@@@#&    . ....XX.XoO= ## @ @@@@@@@",
"@    . ........Xo*+   @ @@@@@@@ @    . ........Xo*+   @ @@@@@@@ ",
"    . .........#oO+  @ @@@@@@@ @    . .........#oO+  @ @@@@@@@ @",
"   . ......... XoO+ @ @@@@@@@ @    . ......... XoO+ @ @@@@@@@ @ ",
"  . ......... .#oO+@ @@@@@@@ @    . ......... .#oO+@ @@@@@@@ @  ",
" . ......... . #oO$ @@@@@@@ @    . ......... . #oO$ @@@@@@@ @   ",
". ......... .  #o%O@@@@@@@ @    . ......... .  #o%O@@@@@@@ @    ",
"OX........ .O# #oO$@%&@@@ @    .OX........ .O# #oO$@%&@@@ @    .",
"XX....... . ## &o%$@&&@@ @    . XX....... . ## &o%$@&&@@ @    . ",
"........ .    @#o%$@@@@ @    . ......... .    @#o%$@@@@ @    . .",
"XXXXXXX#X####&#&o%@&&&#&####X#XXXXXXXXX#X####&#&o%@&&&#&####X#XX",
"ooooooooooooooooo&ooooooooooooooooooooooooooooooo&oooooooooooooo",
"X****O*OOOO%O%%%%%%%O%OOOO*O****X****O*OOOO%O%%%%%%%O%OOOO*O****",
"o*==+=++++$+$$$$$$$+$++++=+====.o*==+=++++$+$$$$$$$+$++++=+====.",
"o*= .    @ @@@@@@@ @    . .....Xo*= .    @ @@@@@@@ @    . .....X",
"o*+.O#  @ @@@@@@%#@    . ...*X.Xo*+.O#  @ @@@@@@%#@    . ...*X.X",
"oO= ## @ @@@@@@@#&    . ....XX.XoO= ## @ @@@@@@@#&    . ....XX.X",
"o*+   @ @@@@@@@ @    . ........Xo*+   @ @@@@@@@ @    . ........X",
"oO+  @ @@@@@@@ @    . .........#oO+  @ @@@@@@@ @    . .........#",
"oO+ @ @@@@@@@ @    . ......... XoO+ @ @@@@@@@ @    . ......... X",
"oO+@ @@@@@@@ @    . ......... .#oO+@ @@@@@@@ @    . ......... .#",
"oO$ @@@@@@@ @    . ......... . #oO$ @@@@@@@ @    . ......... . #",
"o%O@@@@@@@ @    . ......... .  #o%O@@@@@@@ @    . ......... .  #",
"oO$@%&@@@ @    .OX........ .O# #oO$@%&@@@ @    .OX........ .O# #",
"o%$@&&@@ @    . XX....... . ## &o%$@&&@@ @    . XX....... . ## &",
"o%$@@@@ @    . ......... .    @#o%$@@@@ @    . ......... .    @#",
"o%@&&&#&####X#XXXXXXXXX#X####&#&o%@&&&#&####X#XXXXXXXXX#X####&#&",
"o&ooooooooooooooooooooooooooooooo&oooooooooooooooooooooooooooooo",
"%%%%O%OOOO*O****X****O*OOOO%O%%%%%%%O%OOOO*O****X****O*OOOO%O%%%",
"$$$+$++++=+====.o*==+=++++$+$$$$$$$+$++++=+====.o*==+=++++$+$$$$",
"@@ @    . .....Xo*= .    @ @@@@@@@ @    . .....Xo*= .    @ @@@@@",
"%#@    . ...*X.Xo*+.O#  @ @@@@@@%#@    . ...*X.Xo*+.O#  @ @@@@@@",
"#&    . ....XX.XoO= ## @ @@@@@@@#&    . ....XX.XoO= ## @ @@@@@@@",
"@    . ........Xo*+   @ @@@@@@@ @    . ........Xo*+   @ @@@@@@@ ",
"    . .........#oO+  @ @@@@@@@ @    . .........#oO+  @ @@@@@@@ @"
};
