/* XPM */
static char *bcc19456bf1349cde4d182affccc52a0AOxyo9kGp30bO2x2[] = {
/* columns rows colors chars-per-pixel */
"64 64 142 2 ",
"   c #732B00",
".  c #712800",
"X  c #712900",
"o  c #722900",
"O  c #7A360D",
"+  c #7A3105",
"@  c #7B3106",
"#  c #763102",
"$  c #763001",
"%  c #783103",
"&  c #773102",
"*  c #773101",
"=  c #7A3207",
"-  c #742C01",
";  c #F1F1F0",
":  c #F9E4D6",
">  c #FAAB7C",
",  c #EAA667",
"<  c #BD962C",
"1  c #BE952B",
"2  c #C0962E",
"3  c #BF952D",
"4  c #BE952C",
"5  c #BC9429",
"6  c #EDAA6C",
"7  c #F5A87B",
"8  c #783004",
"9  c #722A00",
"0  c #F1F0EF",
"q  c white",
"w  c #FFE9DA",
"e  c #FFB587",
"r  c #F0AD6B",
"t  c #C29D2F",
"y  c #C49C2F",
"u  c #C59D31",
"i  c #C49D30",
"p  c #C49D2F",
"a  c #C19B2C",
"s  c #F1AF6E",
"d  c #FFBA8E",
"f  c #B67333",
"g  c #712A00",
"h  c #F9E3D5",
"j  c #B77333",
"k  c #732B01",
"l  c #FEFFFF",
"z  c #FDE7D8",
"x  c #FFB286",
"c  c #EEAB6A",
"v  c #C19B2E",
"b  c #C29A2E",
"n  c #C39B30",
"m  c #C39B2F",
"M  c #C0992B",
"N  c #EFAD6D",
"B  c #FFB78D",
"V  c #B57330",
"C  c #925309",
"Z  c #772F03",
"A  c #F9AA7C",
"S  c #FEE8D8",
"D  c #FFB386",
"F  c #C29B2E",
"G  c #C49B30",
"H  c #F0AD6D",
"J  c #FFB88D",
"K  c #B47230",
"L  c #96580C",
"P  c #924F10",
"I  c #732C00",
"U  c #763103",
"Y  c #E9A567",
"T  c #925010",
"R  c #763101",
"E  c #BD952C",
"W  c #EEAB69",
"Q  c #C19B2D",
"!  c #C29A2D",
"~  c #F0AE6D",
"^  c #732A00",
"/  c #FFB58A",
"(  c #F0AD6C",
")  c #C39C2F",
"_  c #C39C2E",
"`  c #C49C30",
"'  c #F1AE6E",
"]  c #FFB68C",
"[  c #F9DFCC",
"{  c #FEAF82",
"}  c #E8A865",
"|  c #C0972C",
" . c #C1982E",
".. c #C1982D",
"X. c #E8A765",
"o. c #B87632",
"O. c #773103",
"+. c #BF952C",
"@. c #A67235",
"#. c #9E5D15",
"$. c #A3611D",
"%. c #9E5F16",
"&. c #9D5E14",
"*. c #9D5E15",
"=. c #9D5F14",
"-. c #A5641E",
";. c #C29830",
":. c #BD9429",
">. c #935110",
",. c #98580F",
"<. c #995A11",
"1. c #9A5A12",
"2. c #9A5A13",
"3. c #9B5A13",
"4. c #9A5912",
"5. c #9B5C12",
"6. c #C1992D",
"7. c #C1982F",
"8. c #763002",
"9. c #742C00",
"0. c #9C5C14",
"q. c #9B5B13",
"w. c #C2992F",
"e. c #BF962D",
"r. c #C2992E",
"t. c #9C5D14",
"y. c #9F6116",
"u. c #C59E30",
"i. c #773002",
"p. c #C2982E",
"a. c #91500F",
"s. c #A26316",
"d. c #8F4D0D",
"f. c #A16316",
"g. c #BC9329",
"h. c #8F4D0E",
"j. c #EDA96B",
"k. c #904D0E",
"l. c #752D01",
"z. c #7B3207",
"x. c #F4A77B",
"c. c #F0EFEF",
/* pixels */
"    . X X o o o o o o o o o o o o o o o o o o o o o o o o X         . X X o o o o o o o o o o o o o o o o o o o o o o o o X     ",
"    O + @ # $ % & & & & & & & & & & & & & & & & & & % * $ = -       O + @ # $ % & & & & & & & & & & & & & & & & & & % * $ = -   ",
". O ; : > , < 1 2 3 3 3 3 3 3 3 3 3 3 3 3 3 3 3 3 2 4 5 6 7 8 9 . O 0 : > , < 1 2 3 3 3 3 3 3 3 3 3 3 3 3 3 3 3 3 2 4 5 6 7 8 X ",
"X + : q w e r t y u i i i i i i i i i i i i i i u p a s d f g - X + h q w e r t y u i i i i i i i i i i i i i i u p a s d j g k ",
"X @ > w l z x c v b n m m m m m m m m m m m m n b M N B V C Z   X @ A w l z x c v b n m m m m m m m m m m m m n b M N B V C Z 9 ",
"o # , e z q S D c v F G m m m m m m m m m m G F M H J K L P 9 I o U Y e z q S D c v F G m m m m m m m m m m G F M H J K L P 9   ",
"o $ < r x S q S D c v F G m m m m m m m m G F M H J K L T 9 9 I o R E r x S q S D c v F G m m m m m m m m G F M H J K L T 9 9   ",
"o % 1 t c D S q S D W Q ! n m m m m m m n F M ~ J K L T o ^     o % 1 t c D S q S D W Q ! n m m m m m m n F M ~ J K L T o ^     ",
"o & 2 y v c D S q S / ( ) _ ` y y y y ` _ F ' ] K L T o ^ I     o & 3 y v c D S q S / ( ) _ ` y y y y ` _ F ' ] K L T o ^ I     ",
"o & 3 u b v c D S q [ { } |  . ..... . .| X.e o.L T 9 ^ I       o O.+.u b v c D S q [ { } |  . ..... . .| X.e o.L T 9 ^ I       ",
"o & 3 i n F v W / [ @.#.$.%.&.*.*.*.*.=.*.-.;.:.>.X   I         o O.+.i n F v W / [ @.#.$.%.&.*.*.*.*.=.*.-.;.:.>.X   I         ",
"o & 3 i m G F Q ( { #.,.<.1.2.2.2.2.2.3.4.5.6.7.8.X 9.          o O.+.i m G F Q ( { #.,.<.1.2.2.2.2.2.3.4.5.6.7.8.X 9.          ",
"o & 3 i m m G ! ) } $.<.0.q.q.q.q.q.q.q.3.*.w.e.& 9             o O.+.i m m G ! ) } $.<.0.q.q.q.q.q.q.q.3.*.w.e.& 9             ",
"o & 3 i m m m n _ | %.1.q.q.q.q.q.q.q.q.2.&.r.e.& o             o O.+.i m m m n _ | %.1.q.q.q.q.q.q.q.q.2.&.r.e.& o             ",
"o & 3 i m m m m `  .&.2.q.q.q.q.q.q.q.q.2.&.r.e.& o             o O.+.i m m m m `  .&.2.q.q.q.q.q.q.q.q.2.&.r.e.& o             ",
"o & 3 i m m m m y  .*.2.q.q.q.q.q.q.q.q.2.&.r.e.& o             o O.+.i m m m m y  .*.2.q.q.q.q.q.q.q.q.2.&.r.e.& o             ",
"o & 3 i m m m m y ..*.2.q.q.q.q.q.q.q.q.2.&.r.e.& o             o O.+.i m m m m y ..*.2.q.q.q.q.q.q.q.q.2.&.r.e.& o             ",
"o & 3 i m m m m y ..*.2.q.q.q.q.q.q.q.q.2.&.r.e.& o             o O.+.i m m m m y ..*.2.q.q.q.q.q.q.q.q.2.&.r.e.& o             ",
"o & 3 i m m m m y  .*.2.q.q.q.q.q.q.q.q.2.&.r.e.& o             o O.+.i m m m m y  .*.2.q.q.q.q.q.q.q.q.2.&.r.e.& o             ",
"o & 3 i m m m m `  .=.3.q.q.q.q.q.q.q.q.3.&.r.e.& o             o O.+.i m m m m `  .=.3.q.q.q.q.q.q.q.q.3.&.r.e.& o             ",
"o & 3 i m m m n _ | *.4.3.2.2.2.2.2.2.3.4.t.r.e.& o             o O.+.i m m m n _ | *.4.3.2.2.2.2.2.2.3.4.t.r.e.& o             ",
"o & 3 i m m G F F X.-.5.*.&.&.&.&.&.&.&.t.y.r.e.& 9             o O.+.i m m G F F X.-.5.*.&.&.&.&.&.&.&.t.y.r.e.& 9             ",
"o & 3 i m G F M ' e ;.6.w.r.r.r.r.r.r.r.r.r.u.e.i.X 9.          o O.+.i m G F M ' e ;.6.w.r.r.r.r.r.r.r.r.r.u.e.i.X 9.          ",
"o & 3 i n F M ~ ] o.:.7.e.e.e.e.e.e.e.e.e.e.e.p.a.X   I         o O.+.i n F M ~ ] o.:.7.e.e.e.e.e.e.e.e.e.e.e.p.a.X   I         ",
"o & 3 u b M H J K L >.8.& & & & & & & & & & i.a.s.d.9 ^ I       o O.+.u b M H J K L >.8.& & & & & & & & & & i.a.s.d.9 ^ I       ",
"o & 2 p M H J K L T X X 9 o o o o o o o o 9 X X d.f.d.9 ^ I     o & 3 p M H J K L T X X 9 o o o o o o o o 9 X X d.f.d.9 ^ I     ",
"o % 4 a N J K L T 9   9.                    9.  9 d.f.d.9 ^     o % 4 a N J K L T 9   9.                    9.  9 d.f.d.9 ^     ",
"o * 5 s B K L T o ^ I                         I ^ 9 d.f.d.9 9 I o * g.s B K L T o ^ I                         I ^ 9 d.f.d.9 9   ",
"o $ 6 d V L T o ^ I                             I ^ 9 d.s.h.^ I o $ j.d V L T o ^ I                             I ^ 9 d.s.k.^   ",
"X = 7 f C P 9 ^ I                                 I ^ 9 h.2.l.  X z.x.f C P 9 ^ I                                 I ^ 9 h.2.l.9 ",
"  - 8 g Z 9 9                                         9 ^ l.      - 8 g Z 9 9                                         9 ^ l.    ",
"    9 -   I I                                         I I           9 -   I I                                         I I       ",
"    . X X o o o o o o o o o o o o o o o o o o o o o o o o X         . X X o o o o o o o o o o o o o o o o o o o o o o o o X     ",
"    O + @ U R % & O.O.O.O.O.O.O.O.O.O.O.O.O.O.O.O.& % * $ z.-       O + @ U R % & O.O.O.O.O.O.O.O.O.O.O.O.O.O.O.O.& % * $ z.-   ",
". O 0 h A Y E 1 3 +.+.+.+.+.+.+.+.+.+.+.+.+.+.+.+.3 4 g.j.x.8 9 . O c.h A Y E 1 3 +.+.+.+.+.+.+.+.+.+.+.+.+.+.+.+.3 4 g.j.7 8 X ",
"X + : q w e r t y u i i i i i i i i i i i i i i u p a s d f g - X + h q w e r t y u i i i i i i i i i i i i i i u p a s d j g k ",
"X @ > w l z x c v b n m m m m m m m m m m m m n b M N B V C Z   X @ A w l z x c v b n m m m m m m m m m m m m n b M N B V C Z 9 ",
"o # , e z q S D c v F G m m m m m m m m m m G F M H J K L P 9 I o U Y e z q S D c v F G m m m m m m m m m m G F M H J K L P 9   ",
"o $ < r x S q S D c v F G m m m m m m m m G F M H J K L T 9 9 I o R E r x S q S D c v F G m m m m m m m m G F M H J K L T 9 9   ",
"o % 1 t c D S q S D W Q ! n m m m m m m n F M ~ J K L T o ^     o % 1 t c D S q S D W Q ! n m m m m m m n F M ~ J K L T o ^     ",
"o & 2 y v c D S q S / ( ) _ ` y y y y ` _ F ' ] K L T o ^ I     o & 3 y v c D S q S / ( ) _ ` y y y y ` _ F ' ] K L T o ^ I     ",
"o & 3 u b v c D S q [ { } |  . ..... . .| X.e o.L T 9 ^ I       o O.+.u b v c D S q [ { } |  . ..... . .| X.e o.L T 9 ^ I       ",
"o & 3 i n F v W / [ @.#.$.%.&.*.*.*.*.=.*.-.;.:.>.X   I         o O.+.i n F v W / [ @.#.$.%.&.*.*.*.*.=.*.-.;.:.>.X   I         ",
"o & 3 i m G F Q ( { #.,.<.1.2.2.2.2.2.3.4.5.6.7.8.X 9.          o O.+.i m G F Q ( { #.,.<.1.2.2.2.2.2.3.4.5.6.7.8.X 9.          ",
"o & 3 i m m G ! ) } $.<.0.q.q.q.q.q.q.q.3.*.w.e.& 9             o O.+.i m m G ! ) } $.<.0.q.q.q.q.q.q.q.3.*.w.e.& 9             ",
"o & 3 i m m m n _ | %.1.q.q.q.q.q.q.q.q.2.&.r.e.& o             o O.+.i m m m n _ | %.1.q.q.q.q.q.q.q.q.2.&.r.e.& o             ",
"o & 3 i m m m m `  .&.2.q.q.q.q.q.q.q.q.2.&.r.e.& o             o O.+.i m m m m `  .&.2.q.q.q.q.q.q.q.q.2.&.r.e.& o             ",
"o & 3 i m m m m y  .*.2.q.q.q.q.q.q.q.q.2.&.r.e.& o             o O.+.i m m m m y  .*.2.q.q.q.q.q.q.q.q.2.&.r.e.& o             ",
"o & 3 i m m m m y ..*.2.q.q.q.q.q.q.q.q.2.&.r.e.& o             o O.+.i m m m m y ..*.2.q.q.q.q.q.q.q.q.2.&.r.e.& o             ",
"o & 3 i m m m m y ..*.2.q.q.q.q.q.q.q.q.2.&.r.e.& o             o O.+.i m m m m y ..*.2.q.q.q.q.q.q.q.q.2.&.r.e.& o             ",
"o & 3 i m m m m y  .*.2.q.q.q.q.q.q.q.q.2.&.r.e.& o             o O.+.i m m m m y  .*.2.q.q.q.q.q.q.q.q.2.&.r.e.& o             ",
"o & 3 i m m m m `  .=.3.q.q.q.q.q.q.q.q.3.&.r.e.& o             o O.+.i m m m m `  .=.3.q.q.q.q.q.q.q.q.3.&.r.e.& o             ",
"o & 3 i m m m n _ | *.4.3.2.2.2.2.2.2.3.4.t.r.e.& o             o O.+.i m m m n _ | *.4.3.2.2.2.2.2.2.3.4.t.r.e.& o             ",
"o & 3 i m m G F F X.-.5.*.&.&.&.&.&.&.&.t.y.r.e.& 9             o O.+.i m m G F F X.-.5.*.&.&.&.&.&.&.&.t.y.r.e.& 9             ",
"o & 3 i m G F M ' e ;.6.w.r.r.r.r.r.r.r.r.r.u.e.i.X 9.          o O.+.i m G F M ' e ;.6.w.r.r.r.r.r.r.r.r.r.u.e.i.X 9.          ",
"o & 3 i n F M ~ ] o.:.7.e.e.e.e.e.e.e.e.e.e.e.p.a.X   I         o O.+.i n F M ~ ] o.:.7.e.e.e.e.e.e.e.e.e.e.e.p.a.X   I         ",
"o & 3 u b M H J K L >.8.& & & & & & & & & & i.a.s.d.9 ^ I       o O.+.u b M H J K L >.8.& & & & & & & & & & i.a.s.d.9 ^ I       ",
"o & 2 p M H J K L T X X 9 o o o o o o o o 9 X X d.f.d.9 ^ I     o & 3 p M H J K L T X X 9 o o o o o o o o 9 X X d.f.d.9 ^ I     ",
"o % 4 a N J K L T 9   9.                    9.  9 d.f.d.9 ^     o % 4 a N J K L T 9   9.                    9.  9 d.f.d.9 ^     ",
"o * 5 s B K L T o ^ I                         I ^ 9 d.f.d.9 9 I o * g.s B K L T o ^ I                         I ^ 9 d.f.d.9 9   ",
"o $ 6 d V L T o ^ I                             I ^ 9 d.s.h.^ I o $ j.d V L T o ^ I                             I ^ 9 d.s.k.^   ",
"X = 7 j C P 9 ^ I                                 I ^ 9 k.2.l.  X z.7 j C P 9 ^ I                                 I ^ 9 k.2.l.9 ",
"  - 8 g Z 9 9                                         9 ^ l.      - 8 g Z 9 9                                         9 ^ l.    ",
"    X k 9                                                 9         X k 9                                                 9     "
};
