/* XPM */
static char *result[] = {
/* columns rows colors chars-per-pixel */
"64 64 199 2 ",
"   c #0F0E0E",
".  c #140F0F",
"X  c #151414",
"o  c #1A1616",
"O  c #1C1C1C",
"+  c #2E0E0E",
"@  c #241717",
"#  c #2C1717",
"$  c #241C1C",
"%  c #2D1C1C",
"&  c #331717",
"*  c #381615",
"=  c #321C1C",
"-  c #3B1C1C",
";  c #2F281C",
":  c #232121",
">  c #2C2121",
",  c #2B2A2A",
"<  c #332121",
"1  c #3D2121",
"2  c #342A2A",
"3  c #3B2A2A",
"4  c #3A362B",
"5  c #4C1616",
"6  c #411F1F",
"7  c #4D1C1C",
"8  c #521716",
"9  c #541C1C",
"0  c #5C1B1B",
"q  c #671A1A",
"w  c #6A1C1B",
"e  c #44201F",
"r  c #59201F",
"t  c #422121",
"y  c #432926",
"u  c #4C2823",
"i  c #452A2A",
"p  c #492A2A",
"a  c #542423",
"s  c #5A2725",
"d  c #532C2A",
"f  c #5A2E2C",
"g  c #48382C",
"h  c #55342B",
"j  c #56362C",
"k  c #533230",
"l  c #622A25",
"z  c #6B3632",
"x  c #643834",
"c  c #703733",
"v  c #4D4533",
"b  c #554634",
"n  c #694731",
"m  c #852625",
"M  c #A02C2A",
"N  c #CC0B0A",
"B  c #D20807",
"V  c #D80807",
"C  c #D30A09",
"Z  c #D80908",
"A  c #D5110F",
"S  c #CA1613",
"D  c #D41512",
"F  c #D71A16",
"G  c #E50605",
"H  c #FE0302",
"J  c #F00806",
"K  c #FE0A07",
"L  c #FD0D0A",
"P  c #E2100D",
"I  c #E9110E",
"U  c #FE120D",
"Y  c #E61915",
"T  c #FE1612",
"R  c #FE1B15",
"E  c #FE1E18",
"W  c #D12216",
"Q  c #E6221A",
"!  c #FC2619",
"~  c #FD241D",
"^  c #FE351D",
"/  c #CC342C",
"(  c #E72822",
")  c #F92B24",
"_  c #FD2B24",
"`  c #E5352D",
"'  c #FE3127",
"]  c #FE332A",
"[  c #FE3A2A",
"{  c #FD3C32",
"}  c #FE4B2E",
"|  c #FE4136",
" . c #FE443A",
".. c #FE493D",
"X. c #FE5836",
"o. c #D14F43",
"O. c #FE4D42",
"+. c #E6564B",
"@. c #E4594C",
"#. c #FD5346",
"$. c #FD564A",
"%. c #FE5B4E",
"&. c #E95F53",
"*. c #FE5F53",
"=. c #D46154",
"-. c #FF774E",
";. c #FD7C4A",
":. c #E76356",
">. c #E66C5C",
",. c #FE6153",
"<. c #FB6559",
"1. c #FD6A5C",
"2. c #E57668",
"3. c #FE7263",
"4. c #FE7669",
"5. c #FE7A6C",
"6. c #FE7E70",
"7. c #968866",
"8. c #8D8272",
"9. c #998E7F",
"0. c #D39C59",
"q. c #FF8951",
"w. c #FB9758",
"e. c #D5B15D",
"r. c #FDA55D",
"t. c #E8897C",
"y. c #FE8477",
"u. c #FE8A7D",
"i. c #CEB364",
"p. c #D5B669",
"a. c #C5A970",
"s. c #FEAC68",
"d. c #FEB66E",
"f. c #FDAB75",
"g. c #FEB878",
"h. c #E8C466",
"j. c #E5C46D",
"k. c #E3C570",
"l. c #E6C579",
"z. c #FCC87A",
"x. c #FDDA79",
"c. c #9A8F81",
"v. c #FD8D83",
"b. c #FE9386",
"n. c #FD988C",
"m. c #E99F92",
"M. c #FD9E92",
"N. c #CDB885",
"B. c #C5B495",
"V. c #D0BE9C",
"C. c #FEA396",
"Z. c #FEA99E",
"A. c #C8B8A2",
"S. c #C9BAA8",
"D. c #FDAEA3",
"F. c #FCB4A7",
"G. c #FEB4AA",
"H. c #FEBDB3",
"J. c #FBD782",
"K. c #FDDC83",
"L. c #FEDD8B",
"P. c #E8CC90",
"I. c #FED594",
"U. c #FEDB93",
"Y. c #FBDE9C",
"T. c #FFE195",
"R. c #FEE29B",
"E. c #D2C2AC",
"W. c #D3C4B2",
"Q. c #FEDEA6",
"!. c #FFC4BB",
"~. c #FFC5BB",
"^. c #EBD8BF",
"/. c #FEE3A1",
"(. c #FEE4AC",
"). c #FDE6B4",
"_. c #F9E4B9",
"`. c #FCE6BA",
"'. c #FFCAC2",
"]. c #EDDCC6",
"[. c #FDD0C6",
"{. c #FFD2CB",
"}. c #FFDAD4",
"|. c #FFDED9",
" X c #FDE8C2",
".X c #F7E5CB",
"XX c #F8E5C9",
"oX c #FDE9CB",
"OX c #F9E7D4",
"+X c #FDEBD3",
"@X c #FFE2DD",
"#X c #FEECD9",
"$X c #FFE5E1",
"%X c #FFE9E6",
"&X c #FFEDEA",
"*X c #FFF0ED",
"=X c #FFF5F3",
"-X c #FFF8F7",
";X c #FFFEFE",
/* pixels */
"< > < 1 < t t t t t t t t t < & . 3 2 > : > : : : : : : : > : > < < < 1 1 1 t t t t t t t t < # . 3 2 > : > : : : : : : : > : < ",
"< < 1 1 1 t t t t t t t 1 < 6 @ . 3 2 , > : O : O : : : > : < < < < 1 < 1 t t t t t t t t < 1 # . 3 2 > : : : : O : : : : : > < ",
"< 1 < 1 t t t t t t t 1 < 1 < @ . 2 , , : : : : : : : : > > < > < 1 < t t t t e t t 6 1 < 1 < @ X 2 2 > : : : O : : : , > > < > ",
"1 - 1 t t t t t t t t 1 1 < < @ . , 3 : : : : : : : , : > > < < 1 < 1 t t t t t t 6 1 < t < < @ . 2 2 : : : : : : : : : > > < < ",
"3 - t t t t t t t 1 1 1 3 = = @ X , , : : O : : : : : < < > < 1 3 - 6 t t t t e 6 1 1 1 3 % < @ . 2 , : , O : : : > > > < < < < ",
"- - t t t t t t 1 < 1 < % @ > o   , , : O O : : > > > < < < 1 1 - - t t t t t t 1 1 1 < % # > o   , , : O O : : > > > > < < 1 < ",
"t 6 - t t e e 6 < 6 < = > > $ @   , , O : O : $ : % > > < 1 < - - 6 6 t t 6 t 1 < 1 < < > % : @   , , O O O : > : % > < < 1 < t ",
"& & & & & & & @ & @ @ @ @ o @ X   , O O X O @ O @ @ @ # # # & & & & & & & & & # # # @ @ @ o O X   , O O O X O X @ @ @ # # # & & ",
". . . X . . . . . . X   .         O         . . . . . . . . . . . . . . . . . . . X . . X         O             . . X . . X . . ",
"& p p i p 3 i 3 2 2 2 2 2 , , , , , , , 2 , 3 3 3 3 i 3 p p p i & p p p i 3 i 3 3 3 2 , , , , , , , , , 2 , 3 3 3 3 i 3 i p p p ",
". p p i i i 3 2 3 2 , 2 , , , , , , , 2 2 2 2 2 3 i 3 p p p p 6 o p p p 3 p 3 3 3 2 , 2 , , , , , , , 2 2 2 3 3 3 i 3 p p p p t ",
". p i 1 1 < < < < > > : : : : : : : > > , < < < 1 < t t t e e & . i p 1 1 < < < > > > : : : : : : : > > > 2 < < 1 < t t t t e - ",
". i 3 6 3 % = > : : : : : : : : , $ $ > > < < 1 1 1 t t p - 6 & . p 3 1 3 % < > : > : : : : : : , $ > > < < < t < t t t p - 6 * ",
"  3 i < % % > > : : : : : : : : $ $ > < < < 1 < 1 t t t - - 6 * . i p < % # % : > : : : O : : : : O % < < < < < t t t t 6 - 6 - ",
". i 3 < < > : > : : : : : : : : : < < < < 1 1 1 t e t t e e 9 5 + s 3 < < > > > : : : : : : : : : > < > < 1 < 1 t t t 6 t 6 6 * ",
"  3 2 < > : > : : : : : : : : : > > < < 1 < 1 t t e a r 0 l D P P F l 7 e 6 > : : : : : : : : : > < < < 1 < t t t t t t t t 1 & ",
"  3 2 < : > : : O : : : : : > > < < < 1 1 1 t t 9 w D Y Q ( _ _ _ ) ( Y A S 7 : O : : : : > > > < < < < < t t t t t t t t t < & ",
"  2 2 > > : : : : : : : > : > > > < 1 < 1 e 9 w A Y _ { #.1.4.5.4.3.,.O.] ) S 1 , : : : > > > > < < t < 1 t t t t t t t t < < & ",
"  3 , > : : : : : : : > : > < < < 1 < t e q Z I ~ { ,.u.D.'.}.|.|.}.'.Z.6.$.` M m 6 < % : > < < < 1 < t t t t t t t t t < < < # ",
"  , 2 > : : O : : : > : < > < < 1 1 1 t q V L ~  .5.G.@X-X-X;X;X;X;X-X=X}.D.<.` F N N 7 > < < < 1 < t t t t t t t t t < t < < # ",
"  , , : , O O : : > : > < < < 1 1 - t q V K R { 6.'.=X-X;X;X;X;X;X;X;X;X;X%XH.1.) I J N 0 < < 1 i - 6 t t t t t t t < 1 3 % < $ ",
"  , , : O O : : > : < < < < 1 < - - q Z H U ] 1.H.*X;X;X;X;X;X;X;X;X;X;X;X;X&XD.$.~ L H B 0 1 < - - t t t t t t 1 < 1 < = # > @ ",
"  , , O O : O : : < < > < - < 1 t q Z H H E ..n.%X;X;X;X;X;X;X;X;X;X;X;X;X;X-X|.6.] U H H C 0 - - 6 6 t t 6 t 1 < 1 < = < % $ O ",
"  , : o o o O O @ @ @ # # @ & * 0 F L K L ~ ,.H.-X;X;X;X;X;X;X;X;X;X;X;X;X;X;X=XD.O.T L L L F 0 & & & & & & & # # # @ @ @ o @ o ",
"  O     .   X . . . . . . . . & / { ~ U L _ 3.{.-X;X;X;X;X;X;X;X;X;X;X;X;X;X;X-XH.%.E L T _ { / + . . X . . . . . .     X       ",
", , , , 2 , 2 2 3 3 i i i p p c >.v.O.E T ] 4.}.;X;X;X;X;X;X;X;X;X;X;X;X;X;X;X-X'.*._ U _ *.v.&.l p p p p 3 i 3 3 3 3 , 2 , , , ",
", , , , 2 2 3 3 2 i 3 i p p f =.D.{.4._ R ] 4.}.;X;X;X;X;X;X;X;X;X;X;X;X;X;X;X-X'.%._ E { y.{.M.o.f p i i i 3 2 3 2 , 2 , , , , ",
": : , : > > < < 1 1 t t t e z t.}.&Xn.{ R _ <.H.-X;X;X;X;X;X;X;X;X;X;X;X;X;X;X-XG.O.E E O.D.*X{.2.c i 1 1 < < < > > > : : : : : ",
", $ : < < > < 1 < t t t p a =.F.=X=XD.{ R ~ #.D.&X;X;X;X;X;X;X;X;X;X;X;X;X;X;X%Xb.{ R E $.H.-X&Xn.o.d t 3 = < < : : : : : : : : ",
"@ $ > > < < 1 < 1 t t t - a 2.[.-X=XD.O.R T { 6.{.-X;X;X;X;X;X;X;X;X;X;X;X;X-X'.<.) T _ *.!.-X-XH.:.f < $ % > : > : : : : : : : ",
": > < < < 1 < t t t t t t f t.$X;X=XD.{ T U _ #.C.@X-X;X;X;X;X;X;X;X;X;X;X-X}.u.{ E L ~ $.H.-X-X|.2.k < < > : : : : : : : : : : ",
"< > < < 6 < e 1 t t t t t c m.*X;X&Xn.] L H U ] ,.C.@X=X;X;X;X;X;X;X;X;X-X}.b.O.E L L E #.D.=X-X%Xv.x < < : > : : : : : : : : : ",
"< < < 1 1 1 t t t t t t a =.F.=X;X$X6.] L H H T ' %.b.'.$X=X-X-X-X-X=X$XH.y.O._ L H H R | b.%X;X*XM.o.t : > : : : : : : : > : > ",
"< < 1 < 1 t t t t t t t s >.H.=X-XH.%.E K H H H U _  .1.b.D.!.'.'.!.Z.u.,.{ ~ L H H H U ] 3.{.-X=XZ.@.i : : : : : : : : : > > < ",
"< 1 < t t t t t t t e 1 u >.~.*X$Xu.{ T H H H H H U E _ | #.*.<.,.%.O.{ _ T K H H H H K E #.C.%X=XD.@.y : : : : : : : : > > < > ",
"1 < 1 t t t t t t t e < h >.H.%XG.$.~ K H H H H H H K U T E ~ _ ~ ~ R U K H H H H H H H L ] 1.!.%XD.@.y : : : O : : : : > > < < ",
"i & t t t t t t t t 1 1 f @.C.G.<._ T H H H H H H H H H H H K K L H H H H H H H H H H H K R | 6.H.v.o.1 , O : : : > : < < > < 1 ",
"- - e t t t t t 1 < 1 < t / %.,.] R K H H H H H H H H H H K H K K K H H H H H H H H H H H K ~ { ,.+.d : O O : : > > > > < < 1 < ",
"6 t - t 1 t e 1 < - < < % a ( ~ T K H H H H H H H H K U ! ! ^ ^ ^ ^ ! R U K H H H H H H H H L R _ ( t : O O : > : > < < < 6 < t ",
"& & & & * & & # # @ @ @ $ * P L H H H H H H H K U ^ X.;.w.f.g.g.d.d.r.w.;.X.^ U H H H H H H H K L S 1 o X O o o @ @ @ @ # @ & & ",
". . X . . . . . . . . X . + N H H H H H H H L [ ;.s.z.l.a.P.(.).(.R.P.a.l.z.s.-.] L H H H H H H G 5 . .     . . . . . . . X . . ",
"& t i p p 3 i 3 3 3 2 , 2 , a B H H H H H U X.f.U.T.Y.N.7.V.XXoX X`.N.7.N.Y./.I.f.X.U H H H H H N i , , 2 2 2 3 2 3 i 3 p p p p ",
"X p p p 3 i 3 3 2 2 , 2 , , , a C H H H L } g./.).)._.B.8.B.OX+X+X.XB.8.B.).`.`.Q.g.} K H H H B a , , , , 3 2 3 3 p i p p p p t ",
". p p 1 1 < < < > > , : : : : : 7 C H H R w.U.`. X X^.B.8.S..X+X+X].A.8.A. XoXoX`.I.q.T H H B 7 > : > > , < < < 1 < 1 t t t e - ",
"  i i 1 3 % = > : : : : : O : : , 8 B H ! r.U.). X+X.XE.9.W.+X#X#XOXE.c.E.OX+XoX`.U.r.R G N 7 : , $ > > > < < 1 < 1 t t p - 6 - ",
"  3 i < % % > > : : : : : : : : % @ 9 C Q r.L.(.oX+X+X^.E.].+X#X#XOX].E.].+XoXoX(.L.w.W 7 - : : $ o > < < < 1 < t t t 6 6 - e * ",
". i 3 < < > : > : : : : : : : % : < < e s 0.J.R.).`. X`.`.oX+X+X#X+XoXXXXX X X).Q.J.0.u : : : % : > = < < 1 1 1 t t t t t 6 6 * ",
"  3 3 < > : > : : : O : : : > : > < < < 1 n p.L.T./.(.(.).`. XoXoXoX X`.`.).(.R.L.p.v : : : > : < > < < 1 < 1 t t t t t t e 6 % ",
"  3 1 , : , $ : : : : : : > : > > < < 1 1 t n p.x.K.L.T.R.R.(.(.).).(.(./.R.T.K.p.v : : : > : > > < < 1 1 1 t t t t t t t 1 < - ",
"  2 3 : : : : : O : : $ > : > < < < 1 < 1 1 u n e.h.x.x.K.L.L.T.T.T.T.R.L.K.k.i.v : : : > : < < < < 1 < 1 t t t t t t t 1 1 - # ",
"  2 , > : : : : : : : , > > < < < 1 1 1 t t t t j n e.h.h.j.j.j.k.l.l.l.k.i.v 4 : : : > : < > < < 1 < t t t t t t t t t 1 1 < @ ",
"  2 2 > : : O : : : : : > < > < 1 < 1 t t t t t e t h h j g g y ; v b 4 4 4 : : : : > : < > < < 1 < 6 t t t t t t t 1 < 1 < < @ ",
"  2 , : , O : : : > > > > < < 1 i - - t t t t t 1 1 < e 3 % < o   2 , : , O O : : > : > < < < 1 i - 6 t t t t t t 1 < 1 2 = > # ",
"  , , : O O $ : > : > > < < 1 < - - t t t t t t e < < < % % > o   , , : O O : : , : > < > < 1 < - - t t t t t 1 1 1 1 < > # > o ",
"  , , O O O : : : % = < = 1 < t 6 6 6 t t t 6 - < < < < = > $ @   , , : : O : > $ > < < < 1 - 6 - 6 6 t t e 1 6 < 1 = = > > $ $ ",
"  : O O O X O O @ @ @ @ % # & & & & & & & & # # & # @ # @ o @ X   , : X o X @ o @ @ @ @ # # & & & & & & & & & # # # @ # @ o @ o ",
"  O . .     . . X . X . . . . . . . . o . . X . . . . X           O X     X X   .   . X . . . . . . . . . . . . . . . . .       ",
", , , , 2 2 2 2 3 3 i 3 p p p t & y p p p p i 3 3 3 2 , 2 , , , , , , , 2 , 3 2 3 3 i 3 i p p i - p p i p 3 i i 3 2 2 2 2 , , , ",
", , , , 2 2 2 3 3 i 3 p p p p t o u p i 3 p 3 3 2 2 , , , , , , , , , , , 2 2 3 3 i 3 p p p p 1 o p p i i i 2 2 2 2 , 2 , , , , ",
": : > > , < < < 1 1 1 t t t t & X i i 1 1 < < > > > , : : : : : : : : : < < < < 1 1 t t i 6 6 & . p i 1 1 < < < < > > : : : : : ",
", $ : < < < < 1 1 1 1 t p - 6 & . p i 1 3 % < > : > : : : : : : , $ > > > < < 1 1 1 t t p - 6 & . p 3 1 3 % = < : : : : : : : : ",
"$ O > < < < 1 < 1 t t e 6 - 6 & . 3 i < % % < : > : : : O : : O $ $ > > < < 1 < 1 t t t - - 6 & . i i < = @ > : : : : : : : : : ",
": > > < < 1 < 1 t t t e e t 6 & . i 3 < < % : > : : : : : : : > : < > < < 1 1 1 t t e 6 6 6 6 & . i 2 < < > : : : : : : : : : : ",
"< > < < 1 < t t t t t t 1 t 6 # . 3 2 > < : : : : : : : : : > : > < < < 1 < 1 t t t t t t e 6 % . 3 2 < < : , : : : : : : : : : "
};
