/* XPM */
static char *result[] = {
/* columns rows colors chars-per-pixel */
"64 64 250 2 ",
"   c #0E0705",
".  c #0F0E0E",
"X  c #180807",
"o  c #140F0F",
"O  c #1D150D",
"+  c #151414",
"@  c #1B1616",
"#  c #1C1C1B",
"$  c #260A07",
"%  c #390804",
"&  c #29160B",
"*  c #351A0B",
"=  c #241717",
"-  c #2B1717",
";  c #2B1B15",
":  c #241C1C",
">  c #2C1C1C",
",  c #331717",
"<  c #3B1C13",
"1  c #321D1C",
"2  c #3B1B1B",
"3  c #39230C",
"4  c #27201E",
"5  c #39231A",
"6  c #261A2E",
"7  c #232121",
"8  c #2C2121",
"9  c #2B2A2A",
"0  c #2E2928",
"q  c #332121",
"w  c #3D2121",
"e  c #3A2825",
"r  c #342A2B",
"t  c #3B2A2A",
"y  c #332B32",
"u  c #3A3837",
"i  c #530B07",
"p  c #46190A",
"a  c #58160B",
"s  c #451C12",
"d  c #491E14",
"f  c #401F1F",
"g  c #67180B",
"h  c #78140A",
"j  c #6F1D13",
"k  c #4E290B",
"l  c #57380A",
"z  c #472717",
"x  c #43221E",
"c  c #572B16",
"v  c #453416",
"b  c #593719",
"n  c #6D2712",
"m  c #772716",
"M  c #68381A",
"N  c #783B1A",
"B  c #422121",
"V  c #472825",
"C  c #452A2A",
"Z  c #492A2A",
"A  c #532B2D",
"S  c #4A3526",
"D  c #573927",
"F  c #463A35",
"G  c #563D32",
"H  c #712E2E",
"J  c #673B27",
"K  c #783927",
"L  c #57411F",
"P  c #684717",
"I  c #77401F",
"U  c #7C421E",
"Y  c #74531A",
"T  c #5A442A",
"R  c #4E4337",
"E  c #574436",
"W  c #5B5330",
"Q  c #6A4427",
"!  c #6B432A",
"~  c #754325",
"^  c #7B4525",
"/  c #76472D",
"(  c #664835",
")  c #744834",
"_  c #6E533C",
"`  c #765930",
"'  c #7C6B3B",
"]  c #191E5B",
"[  c #2B2453",
"{  c #302C51",
"}  c #1D2477",
"|  c #2B2F6F",
" . c #4D3A53",
".. c #683155",
"X. c #493866",
"o. c #74397F",
"O. c #494646",
"+. c #564748",
"@. c #504A5B",
"#. c #5A5658",
"$. c #654845",
"%. c #685A47",
"&. c #725952",
"*. c #796947",
"=. c #67615C",
"-. c #7B6959",
";. c #767452",
":. c #4A476A",
">. c #505471",
",. c #706D68",
"<. c #797677",
"1. c #881A0C",
"2. c #961B08",
"3. c #B71E07",
"4. c #90280C",
"5. c #872717",
"6. c #942B1C",
"7. c #8D311B",
"8. c #983719",
"9. c #A82806",
"0. c #B32D0D",
"q. c #B62B14",
"w. c #A63719",
"e. c #B83517",
"r. c #84372A",
"t. c #993725",
"y. c #92322D",
"u. c #AA2E26",
"i. c #B73625",
"p. c #AF3733",
"a. c #CC2D0A",
"s. c #D82C0A",
"d. c #C53408",
"f. c #D6330A",
"g. c #C82D19",
"h. c #DA2C16",
"j. c #C83616",
"k. c #D83417",
"l. c #E52A0B",
"z. c #E4310C",
"x. c #E42D13",
"c. c #E83112",
"v. c #C63625",
"b. c #D23424",
"n. c #85471E",
"m. c #824623",
"M. c #86482A",
"N. c #98462B",
"B. c #8D4E38",
"V. c #AE4931",
"C. c #8C6E35",
"Z. c #D7491C",
"A. c #CC4531",
"S. c #893549",
"D. c #AB354F",
"F. c #913070",
"G. c #925B44",
"H. c #AE4D4D",
"J. c #896A4B",
"K. c #8E7453",
"L. c #AF6F52",
"P. c #87796C",
"I. c #B1746A",
"U. c #C1734E",
"Y. c #C76857",
"T. c #DC6D58",
"R. c #988450",
"E. c #A6914E",
"W. c #A98855",
"Q. c #B48D5C",
"!. c #B8985B",
"~. c #978668",
"^. c #8F8A76",
"/. c #B3926C",
"(. c #B4A66B",
"). c #BDA57C",
"_. c #C49B6A",
"`. c #CF9372",
"'. c #EB896F",
"]. c #CAA76C",
"[. c #CAA876",
"{. c #D5A779",
"}. c #CCB473",
"|. c #DBB97A",
" X c #E8BE6E",
".X c #E6BB76",
"XX c #D0C179",
"oX c #E6C47E",
"OX c #2C3393",
"+X c #373898",
"@X c #1E29A1",
"#X c #2B37A3",
"$X c #2A32B1",
"%X c #3635B5",
"&X c #4A3192",
"*X c #4E32A8",
"=X c #6E35A0",
"-X c #38448F",
";X c #2C40B4",
":X c #505592",
">X c #6B508C",
",X c #696F94",
"<X c #1D36D9",
"1X c #2938C7",
"2X c #3433CA",
"3X c #2839D6",
"4X c #3436D1",
"5X c #1E38E5",
"6X c #153CF6",
"7X c #2536E3",
"8X c #2739E5",
"9X c #3036E8",
"0X c #2436F3",
"qX c #4134C6",
"wX c #2941C9",
"eX c #827A85",
"rX c #8D8A89",
"tX c #949997",
"yX c #A79898",
"uX c #98A597",
"iX c #BAAC87",
"pX c #A7A09E",
"aX c #9798AB",
"sX c #AB9BA3",
"dX c #A8AAA8",
"fX c #B3B4B6",
"gX c #DC9687",
"hX c #EE9793",
"jX c #C8AA84",
"kX c #CCB589",
"lX c #D7B785",
"zX c #D1AF91",
"xX c #E7A98C",
"cX c #E5B887",
"vX c #E8AD96",
"bX c #C7B4AC",
"nX c #C8BAB9",
"mX c #F6B6A6",
"MX c #F2B6B0",
"NX c #EAC390",
"BX c #D3C3BB",
"VX c #EDC0A2",
"CX c #B0B4C6",
"ZX c #C5BEC9",
"AX c #BEC5C9",
"SX c #BEC6D1",
"DX c #C8C6C9",
"FX c #D4CACD",
"GX c #C9CCD8",
"HX c #D9CBD6",
/* pixels */
"q 8 q w q B B B B B B B B B q , o t r 8 7 8 7 # 7 7 7 7 7 8 7 8 q q 5 w q B B B B B B B B B q - o t r 8 7 8 7 7 # 7 7 7 7 8 8 8 ",
"q q w w B B B B B B B B w q w - + t r 8 8 7 7 7 7 7 7 7 8 8 8 q q q w w w f B B B B B B B q w - o t r 8 9 7 7 7 7 7 7 7 7 7 8 q ",
"q w q w f B B B B B B w q w 1 = . r 9 8 7 7 7 7 7 7 7 7 6 8 e e w V e B B B B B B B B w w w q = + r r 8 7 7 # 7 7 7 7 8 7 8 q q ",
"w 2 w B B B B B B B B w w q 8 = + r y 7 7 4 7 # 7 7 8 0 w C K ! J K K V d V B B B B w e w q > = . r r 6 7 # 7 7 7 7 7 7 8 q 8 q ",
"t 2 B B B B B B B w q w t > 8 = . r 9 7 9 # # 7 7 q q K n 5.7.4.7.5.h j j H d B f B q w e > 1 = o r 9 7 9 # 4 7 7 8 8 8 q q q w ",
"2 2 f B B B B B w w w q 1 - > @ . 9 9 7 # # 7 6 t ! K M.N.p.A.v.i.q.i.p.u.h j d 2 q w 1 > > 8 @ . 9 9 7 # # 7 7 8 7 8 8 q q w q ",
"f f f B f f B w q w q q > 8 4 = . 9 9 7 # 7 # q J B.H.`.hX'.T.V.v.b.b.b.v.u.6.g 2 w q q q 8 4 @ . 9 9 7 # # 7 7 4 8 1 q 1 w q w ",
", , , , , , , - - - = = = @ = + . 9 # # + + = - H I.hXMXmXMXmX'.A.x.h.h.h.b.i.6.g , = = = @ = + . 9 # + + # # @ = = = = > - , , ",
"o o o o o o o o o o o o o . . . . # o . . . - H H.hXhXgXMXgXmXmXT.k.z.c.s.h.b.i.6.a $ . o . . . . # + . . . o . o o o o o + o o ",
", C Z Z Z t C t t t r 0 r 9 9 9 9 9 9 9 t u G.y.Y.MXhXY.H.L.xXMX'.Z.f.f.s.x.h.j.i.6.j t r 9 9 9 9 9 9 0 r r y t t t C t Z Z Z Z ",
"o Z Z Z C C t r r r 0 r 9 9 9 9 w e y 6 e Z r.y.Y.hXY.I.I.L.{.mX'.Z.a.f.l.c.l.l.b.i.5.j r 9 9 9 9 9 0 r 9 r t t t C t Z Z Z Z B ",
"o Z C e w q q q 8 8 8 6 7 7 9 0 ..S.H H H r.5.5.p.Y.Y.xXmX{.{.mXT.k.f.c.z.l.l.c.h.g.u.h g 4 7 7 7 7 4 6 q q q q w e f B B B B 2 ",
"o C C w e > 1 8 7 6 7 # 7 7 C A H y.p.p.p.v.b.v.v.i.u.H.`.`.vXvXT.z.f.z.z.l.l.l.s.h.v.6.a 1 7 7 9 : : 8 q 8 q w w f B B Z 2 f 2 ",
". t C q 1 > 8 8 8 7 7 7 # X o % i h 1.u.u.e.v.3.g.b.g.i.V.V.V.H.j.a.f.f.f.f.s.l.x.x.b.i.m c 4 7 : # 8 q q q w q w B B B f 2 f 2 ",
". C t q q 4 7 8 7 7 7 7 #   X , % % % i i h 4.w.j.j.a.h.j.k.k.j.3.3.3.3.d.f.a.s.c.x.h.v.u.g 1 8 : 8 q q q w w w f B B B B f f , ",
". t t > 8 7 8 7 7 7 7 7 7 = X   X X $ X % % p N 8.e.q.g.a.h.k.k.a.d.9.9.9.d.d.f.c.x.h.b.u.5.j q q 8 q q w q w B B B B B B B 2 , ",
". t r q 4 8 7 7 7 7 # 7 7 7 :     X X X $ $ d I.Q.L.V.V.e.j.j.j.d.f.d.d.9.9.9.d.j.j.j.j.v.t.h z e 5 q w w f f B B B B B B w q , ",
". t r 8 8 7 7 7 7 7 7 7 8 7 8 8 -   X = 5 D _ /.` L.`.].U.N.4.e.j.d.d.d.w.w.4.2.2.0.j.k.e.e.1.y.r.V B q B B B B B B B f w w w > ",
". r r 8 7 7 7 7 7 7 7 8 8 8 8 q 1 2 q E K.~.K.C.v R.lX.X!.n.g 8.w.w.w.n.8.7.7.h 1.2.2.0.e.A.e.8.N c c Z B B B B B B B w 2 w q - ",
". 9 y 4 7 7 7 # 7 7 4 8 8 q q q e e E ;.~.K.' W 3 ' }.XX_.P p G.`._.U.G.B.B.G.N.4.1.h 4.w.w.w.8.t.r.n H B B B B B B B w w q 8 - ",
". y 9 7 9 # # 7 7 8 4 8 q q q w C D ~.zXlX}.[.!.C.C.E.}.}.P z Q.xXxXxXcX|.{.L.N n m g m M.N.t.m y.N.r.c B B B B f w q w t > 8 - ",
". 9 9 7 # # 7 7 8 7 8 q 8 q w q 5 _ kXVXlXNXNX.X X!.E.!.}.R.B./.cXxXcXcX].E.m.n l M I B.`.[./.W.r.m K a B B B f B e w q > > > # ",
". 9 9 # 7 7 # 7 6 > q 8 q 2 w 2 V J.jXcXcXNX.X.X XoXXX}.lXkXjXlX{.{.cXcXR.P l l M k P ~.jXzXlXlX/.K j a B B B f q w q 1 1 4 6 = ",
". 7 7 @ + + # # = = = - - - , , 2 J.jXcXcXcX.X.XXXoXoXlXNXkX[.~.! B._..X!.Y l l b T B.`.R.[.|.|.{.B.k , , , , - - - = = = @ = + ",
". # . . . . . . + + o o o o o o O T iXkXlXNXlXoX|.|.}.)./.K._ 5 * 5 R.kX].C.l l P C._.Q.!..X X.XzXJ.b @ + o o o o o + o o . . . ",
"9 9 9 9 r r t t t t C t C Z Z C > S ;./.kXNXlX[.}.W.` T z z 3 & 3 & ' kXXXE.C.C.Q.[.{.Q.].|. X.XlX*.T Z Z t C t t t r 0 r 9 9 9 ",
"9 9 9 9 9 r r t t C C C Z A Z w @ C F %.K./.W.J.Q l 3 * * * s z * z R.lXcX.X].].{.cX|.(.!.!.|.|.iXF Z Z t C t t r r 0 r 9 9 9 9 ",
"7 7 8 9 8 q q q w q B B B B f , o Z Z V v z z k k p * z z s s p k R.lX|.|..X{.Q.Q J.).lX[.[.lXiX*.D V w w q q q q 6 4 8 7 7 7 7 ",
"9 : 7 q 8 q 1 w w w B B Z 2 w , o Z t w 5 & 3 < p s 3 p p p d p M {.cXxXcX{.L.c k L W ' ^.^.-.( : C C e t > 1 8 7 9 7 7 # 7 7 7 ",
": # 8 8 q q w w w B B f 2 2 f , o C C q , $ $ < 3 3 5 3 < z p z C.lXlX`.`.) c < k v L 4 %.%.S 1 o t C 5 > > 8 8 7 7 7 7 7 7 7 7 ",
"4 8 1 q q w q w B B B B f f f , o Z t q 1 > X $ = & ; 5 S D T %./.iXP.&.G s * d k 3 & & x Z B , o C e q 1 8 7 8 7 7 7 # 7 7 7 7 ",
"8 1 q q e w w f B B B B B B B - o t r q 8 4 8 : O O ; v D c M J E t  .{ A r.A p k p * s x x w - o t t 8 8 7 8 7 7 7 7 7 # 7 9 7 ",
"q 8 q w w f B B B B B B f w w - O t t 4 7 7 7 # 7 7 q H r.7.w.y.$.X.*X&XS.D.r.1.8.t.n a d w w - o t t 8 7 0 4 7 7 7 7 7 7 4 7 8 ",
"8 q w w w B B B B B B B f q w - + t r 4 0 7 7 7 9 6 H r.t.i.p.D.o.&X*X*XD.v.w.2.v.0.9.a f q w = o e r 8 7 7 7 7 7 # 7 7 0 4 8 q ",
"q w 2 w B B B B B B B w q w q = . r 0 0 7 7 7 9 *.T c B.V.w.D.F.>X+X%X=Xp.a.q.2.e.e.v.5.i f 1 = + r 9 8 7 7 7 7 7 7 7 7 7 8 q q ",
"B q w B B B B B B B w w w q 8 - o 9 r 9 9 u W W ^.-.&.) M.N.S.F.&X*X*X=XD.g.q.2.0.v.v.t.a z e = . r y 8 7 7 # 7 7 7 7 7 q q 8 q ",
"t 2 f B B B B B B B q w e > 8 = o r 9 u ,.=.^.<.tX:.X. .Y M.H ..*X4XqX=XD.p.u.1.6.e.i.y.J f +.e # r 9 7 9 # 7 7 7 8 7 8 8 q q w ",
"2 2 f B B B B B B q w q > > > @ . 9 u ;.<.eXtX,X:X+X&X:.~.).K...*X4X4X*XF.H.r.m r.p.H.I.yXyXyX<.#.u 9 7 # # 7 7 8 7 q q q q e q ",
"f f f B B f f 2 q w q q 8 > 7 # . u ;.uXdXfX,X+X%X$X*X:XiXXX(.#.+X4X7X4X=XF...&.I.zXMXHXnXZXDXnX<.+.r 7 # # 7 4 4 8 8 1 q 5 1 B ",
", , , , , , , - - - = = = @ = + . 9 ,.uXAXdX-X#X3X9X4X-XuX(.rX:.OX3X8X9X4X&XX.rXbXFXGXHXGXDXDXsX=.{ 9 + + # # O = = = - , = , , ",
"o o o o o o o o + o o o o . . . . 7 =.tXAXCX-X$X9X8X1X#X>.>.-XOX1X<X8X8X4X@XX.<.fXDXGXGXSXSXDXpXO.O.+ + . . . . o o + o o o o o ",
", Z Z C Z C C t t t r 9 y 9 9 9 9 9 u >.tXaX:X%X9X0X3X;X-X#X$X1X8X5X5X<X%X} >.dXDXGXGXCXAXAXfXBX^.R r r r y t t t t C t Z Z Z Z ",
"o Z Z C t C t t r r 9 r 0 9 9 9 9 9 9 :.#.=.| #X4X8XwXwXwXwX5X0X6X6X5X1XOX| eXBXGXCXDXrX^.uX=.dXfX@.{ t 9 t y t t C t Z Z A Z B ",
". Z Z w w q q q q 7 8 7 7 7 7 7 9 7 9 #.rXuX:X#X3X7X7X3X<X5X0X6X6X6X3X$XOX:.sXBXHXHXZX=.%.rXO.tXAXeXu 8 8 q q q e w w B B B B 2 ",
"o C t B t > q 6 7 7 7 7 7 7 7 7 0 : 8 y =.fXaXOX$X3X7X8X5X0X0X6X6X6X3X%XOX>XBXnXFXFXbX^.,.pX<.dXAXtXu 4 q q q w w B B B Z 2 f , ",
". t Z w > > 1 4 7 7 7 7 # 7 7 7 : # 8 q F <.aX:X} @X1X3X7X9X0X0X6X5X3X2X-X,XfXpXDXGXFXBXbXFXDXFXnX<.u 4 q q 2 q w B B B 2 2 f 2 ",
"o C t 4 4 4 8 8 7 7 7 7 7 7 7 8 4 8 8 1 t O. .:.| | OX@X1X1X7X3XwX<X8X2X@XOX>.<.CXSXDXHXGXGXFXnXpX#.r 5 q w q w B B B f f f f 2 ",
". t t q q 6 8 7 7 7 7 7 7 7 8 8 8 1 q q w e t #.#.O.[ ] } OX%X$X#X#X%X#XOX} @.eXAXGXSXDXSXSXDXtX=.O.9 5 w q B B B B B B B B 2 , ",
". t r q 7 8 7 7 7 7 7 7 7 8 7 q q q q w q B D J ( D Z C 6 6 6 [ { [ [ { [ y F &.tXdXdXdXtXtX,.@.r 0 5 w q B B B B B B B B w q , ",
". r t 7 7 7 7 7 7 7 7 7 8 7 q 8 8 q w q B c / M ~ ^ ~ ! D Z e q = ; t ....E D Q A S F t O.O.r q q q w q B B B B B B B B w w w > ",
". r 0 8 7 7 7 7 # 7 7 8 8 8 8 q q w q B x k ) ~ ~ ^ / / J D v z 5 x S ( ) ( J D b z 5 8 7 9 q q q w q B B B B B B B B B q w q - ",
". r t 7 7 7 # 7 7 7 7 7 8 8 q q w w f x c D Q / I ^ ^ ~ M M J ! J J J b b M M c c z V > 8 8 1 q w q w B B B B B B B B q w q 8 - ",
". r 9 7 9 # 7 7 7 8 6 8 q q q e t 2 w x z D ! / ~ ^ ^ M M M ^ / ~ ^ ^ N M M M M J ! D & 1 1 q w C 2 B B B B B B B w q w t > > - ",
". 9 9 7 # # 7 7 8 4 4 q q q w q 2 2 f B x x T ( ) ~ M n M U m.U I ^ m.^ U I U U M.M.J 3 * q e q 2 2 f B B B B B w w 2 q 1 - 8 # ",
". 9 9 # # 7 # 7 8 4 8 q 1 w q 2 2 B 2 x x 5 E E ( ! J l N U M.U m.m.n.n.n.U U m.J ~ ! D $ 2 w f 2 w f f f B f f q w q q > 8 : = ",
". 7 # # # + # # = = = - - - , , , , 2 , , 2 e G R T D c c N m.U m.U U m.m.U U ^ / ! ( F & - - , , , , , , , , - - - = = = # = @ ",
". # + . . . . . o o o o o + o o o o o o o @ y #.=.-.J.` c J N ^ m.^ / ~ ~ ~ M Q ! ) G 5 & + o o o o o o o + o o o o o . . + . . ",
"9 9 9 9 y y t t t t C t C Z Z V , Z Z Z C C C u u R  .S s k b Q ! ! J J J b b D D A 4 1 V Z Z C , Z Z Z Z t C t t t r r r 9 9 9 ",
"9 9 9 r 0 r t t t Z t Z Z Z Z w O Z Z C t C t r e r r 0 0 z T _ _ %._ &.J.P.K.-.J.=.t C V Z Z f @ Z Z Z C C t r r r 0 r 9 9 9 9 ",
"7 7 8 8 8 q q q e w B B B B f , o Z C e B q q q 8 8 8 4 4 4 F -.P.P.P.J.%.E +.F F t > B B B B , o Z C e w 1 q q q 6 8 7 7 7 7 7 ",
"9 : 4 8 8 q q w w B B B Z f f , o C C w e 1 4 4 7 8 7 7 7 4 9 F G O.R E $.G e w w 2 w B Z 2 f , o Z C w e > 1 8 4 9 7 7 # 7 7 7 ",
": # 8 1 q q w q w B B B f 2 f , o t C q > > q 6 8 7 7 7 7 7 # 7 4 4 q r w q w e f B B f 2 2 f , o C C q > > 8 8 7 7 7 7 7 7 7 7 ",
"4 8 q 8 q 2 w w B B B B f f f , o C t q q 8 4 8 7 7 7 7 7 7 7 4 6 4 1 q q w q f B B B B B B 2 1 o C t q 1 8 7 7 7 7 7 # 7 7 7 7 ",
"q 8 q q w q w B B B B B B f 2 - o t t q q 7 7 7 7 7 7 7 7 7 8 8 q 4 q q w q w f B B B B B B w - o t r q 8 8 8 7 7 7 7 7 # 7 9 7 "
};
